<?xml version="1.0" encoding="utf-8"?>
<!-- Generator: Adobe Illustrator 12.0.0, SVG Export Plug-In . SVG Version: 6.00 Build 51448)  -->
<!DOCTYPE svg PUBLIC "-//W3C//DTD SVG 1.1//EN" "http://www.w3.org/Graphics/SVG/1.1/DTD/svg11.dtd" [
	<!ENTITY ns_svg "http://www.w3.org/2000/svg">
	<!ENTITY ns_xlink "http://www.w3.org/1999/xlink">
]>
<svg  version="1.1" xmlns="&ns_svg;" xmlns:xlink="&ns_xlink;" width="500" height="500" viewBox="0 0 500 500"
	 overflow="visible" enable-background="new 0 0 500 500" xml:space="preserve">
<g id="App_Icon" display="none">
	<polygon display="inline" fill="#FFFF00" points="426.777,323.223 500,250 426.777,176.777 426.777,73.224 323.224,73.224 250,0 
		176.776,73.224 73.223,73.224 73.223,176.777 0,250 73.223,323.223 73.223,426.776 176.776,426.776 250,500 323.224,426.776 
		426.777,426.776 	"/>
	<polygon display="inline" fill="#FFBF00" points="250.001,424.475 126.627,373.377 75.523,250 126.629,126.627 249.999,75.526 
		373.374,126.627 424.478,250.003 373.371,373.372 	"/>
	<circle display="inline" cx="250" cy="250" r="25"/>
	<polygon display="inline" points="250,250 265.301,250 257.65,322.5 250,395 242.35,322.5 234.699,250 	"/>
	<polygon display="inline" points="260.819,239.181 250,228.361 306.675,182.506 363.35,136.65 317.494,193.325 271.639,250 	"/>
	<polygon display="inline" opacity="0.2" points="380.751,144.437 363.25,136.278 238.039,259.354 249.641,396.112 282.025,411.21 
		373.371,373.372 424.478,250.003 	"/>
</g>
<g id="Partly_Cloud_Icon" display="none">
	<g display="inline">
		<path fill="#FFFFFF" d="M205,1c-7.956,0-15.587,3.161-21.213,8.787L141.61,51.964H81.963c-7.956,0-15.587,3.161-21.213,8.787
			s-8.787,13.257-8.787,21.213v59.647L9.787,183.787C4.161,189.413,1,197.044,1,205s3.161,15.587,8.787,21.213l36.624,36.624
			c-0.503,1.763-0.967,3.536-1.39,5.319c-2.2,9.277-3.316,18.849-3.316,28.447c0,2.355,0.067,4.708,0.201,7.055
			c-0.67,0.477-1.334,0.962-1.992,1.457c-7.477,5.622-14.04,12.318-19.508,19.904c-5.548,7.698-9.857,16.16-12.809,25.152
			C4.547,359.464,3,369.167,3,379.011c0,23.076,8.553,45.174,24.084,62.225c14.247,15.639,33.262,25.846,53.992,29.086
			c2.617,0.734,5.343,1.117,8.109,1.117h319.631c0.752,0,1.501-0.028,2.246-0.085c11.685-0.435,23.01-3.031,33.688-7.726
			c10.801-4.748,20.48-11.436,28.771-19.877c8.3-8.451,14.815-18.261,19.365-29.158c4.716-11.297,7.108-23.268,7.108-35.582
			c0-8.134-1.063-16.215-3.161-24.018c-2.037-7.581-5.045-14.886-8.941-21.715c-3.662-6.421-8.092-12.377-13.156-17.732
			c2.68-11.684,4.031-23.659,4.031-35.796c0-20.645-3.888-40.753-11.556-59.763c-3.688-9.148-8.263-18.006-13.592-26.33
			c-5.271-8.232-11.336-16.027-18.028-23.17c-6.68-7.13-14.052-13.682-21.912-19.475c-7.923-5.838-16.423-10.966-25.265-15.24
			c-9.786-4.73-19.939-8.419-30.379-11.045V81.964c0-7.956-3.161-15.587-8.787-21.213s-13.257-8.787-21.213-8.787H268.39
			L226.214,9.787C220.588,4.161,212.957,1,205,1L205,1z M81.963,81.964h72.073L205,31l50.962,50.964h72.075v68.259
			c67.459,4.68,120.731,60.879,120.731,129.527l0,0l0,0c0,16.248-2.992,31.794-8.441,46.129c17.8,10.993,29.669,30.67,29.669,53.132
			l0,0l0,0c0,34.058-27.28,61.729-61.18,62.396v0.031l0,0l0,0H89.185v-0.313C57.638,437.993,33,411.381,33,379.011l0,0l0,0
			c0-27.215,17.415-50.353,41.708-58.897c-1.957-7.51-3.003-15.388-3.003-23.51l0,0l0,0c0-14.818,3.472-28.825,9.637-41.262L31,205
			l0,0l0,0l50.963-50.963V81.964L81.963,81.964L81.963,81.964z M409.407,471.401c0.03-0.001,0.062-0.002,0.092-0.002
			C409.469,471.399,409.438,471.4,409.407,471.401L409.407,471.401z"/>
	</g>
	<g display="inline">
		<path fill="#FFFFFF" d="M318.919,119.899c-14.351,0-28.591,1.909-42.325,5.673c-13.327,3.652-26.149,9.042-38.11,16.019
			c-16.18,9.439-30.583,21.677-42.515,36.023c-0.66-0.174-1.321-0.341-1.984-0.504c-9.54-2.338-19.385-3.523-29.263-3.523
			c-16.594,0-32.707,3.257-47.893,9.68c-7.295,3.086-14.33,6.904-20.908,11.347c-6.507,4.396-12.626,9.445-18.185,15.004
			c-5.559,5.559-10.607,11.678-15.004,18.185c-4.443,6.578-8.261,13.613-11.347,20.908c-6.423,15.187-9.68,31.299-9.68,47.893
			c0,2.355,0.067,4.708,0.201,7.055c-0.67,0.477-1.334,0.962-1.992,1.457c-7.477,5.622-14.04,12.318-19.508,19.904
			c-5.548,7.698-9.857,16.16-12.809,25.152C4.547,359.464,3,369.167,3,379.011c0,23.076,8.553,45.174,24.084,62.225
			c14.247,15.639,33.262,25.846,53.992,29.086c2.617,0.734,5.343,1.117,8.109,1.117h319.631c0.752,0,1.501-0.028,2.246-0.085
			c11.685-0.435,23.01-3.031,33.688-7.726c10.801-4.748,20.48-11.436,28.771-19.877c8.3-8.451,14.815-18.261,19.365-29.158
			c4.716-11.297,7.108-23.268,7.108-35.582c0-8.134-1.063-16.215-3.161-24.018c-2.037-7.581-5.045-14.886-8.941-21.715
			c-3.662-6.421-8.092-12.377-13.156-17.732c2.68-11.684,4.031-23.659,4.031-35.796c0-10.826-1.092-21.654-3.246-32.184
			c-2.104-10.277-5.241-20.386-9.327-30.046c-4.01-9.478-8.971-18.618-14.744-27.165c-5.714-8.458-12.275-16.41-19.501-23.636
			c-7.227-7.226-15.178-13.788-23.636-19.502c-8.548-5.774-17.688-10.735-27.165-14.744c-9.66-4.086-19.77-7.224-30.047-9.327
			C340.573,120.992,329.745,119.899,318.919,119.899L318.919,119.899z M207.058,213.788c22.596-38.237,64.23-63.889,111.861-63.889
			c71.714,0,129.85,58.137,129.85,129.851l0,0l0,0c0,16.248-2.992,31.794-8.441,46.129c17.8,10.993,29.669,30.67,29.669,53.132l0,0
			l0,0c0,34.058-27.28,61.729-61.18,62.396v0.031l0,0l0,0H89.185v-0.313C57.638,437.993,33,411.381,33,379.011l0,0l0,0
			c0-27.215,17.415-50.353,41.708-58.897c-1.957-7.51-3.003-15.388-3.003-23.51l0,0l0,0c0-51.371,41.646-93.017,93.017-93.017
			C179.975,203.587,194.355,207.282,207.058,213.788L207.058,213.788z M409.407,471.401c0.03-0.001,0.062-0.002,0.092-0.002
			C409.469,471.399,409.438,471.4,409.407,471.401L409.407,471.401z"/>
	</g>
</g>
<g id="snow_icon" display="none">
	<g display="inline">
		<path fill="#FFFFFF" d="M116.253,269.5c-7.956,0-15.587,3.161-21.213,8.787s-8.787,13.257-8.787,21.213V370l30,15l0,0l-30-15v15
			c0,7.956,3.161,15.587,8.787,21.213S108.297,415,116.253,415v-30l0,0v30l0,0c7.956,0,15.587-3.161,21.213-8.787
			c2.302-2.302,4.191-4.938,5.62-7.797L116.253,385l0,0l26.833,13.416c2.064-4.127,3.167-8.715,3.167-13.416v-85.5
			c0-7.956-3.161-15.587-8.787-21.213S124.209,269.5,116.253,269.5L116.253,269.5z M116.253,385v-85.5V385L116.253,385L116.253,385z
			 M201.753,312.25c-4.615,0-9.211,1.064-13.417,3.167l-72.084,36.042V385l0,0v-33.541l-13.416,6.708
			c-5.84,2.92-10.531,7.645-13.417,13.417L116.253,385l0,0L89.42,371.584c-0.631,1.262-1.176,2.574-1.627,3.929
			c-2.517,7.548-1.931,15.787,1.627,22.903c3.558,7.117,9.798,12.528,17.346,15.044c3.087,1.029,6.292,1.54,9.486,1.54h0v-30l0,0v30
			c4.615,0,9.211-1.064,13.416-3.167l20.125-10.063L116.253,385l0,0l33.541,16.771l65.375-32.688
			c7.117-3.558,12.528-9.798,15.044-17.346c2.517-7.548,1.931-15.787-1.627-22.903c-3.558-7.117-9.798-12.528-17.346-15.044
			C208.152,312.761,204.948,312.25,201.753,312.25L201.753,312.25z M116.253,385l85.5-42.75L116.253,385L116.253,385z
			 M30.752,312.25c-3.195,0-6.398,0.51-9.486,1.54c-7.548,2.516-13.788,7.927-17.346,15.044c-3.558,7.116-4.144,15.355-1.627,22.903
			c2.516,7.548,7.927,13.788,15.044,17.346l85.5,42.75c4.205,2.103,8.801,3.167,13.416,3.167v-30l0,0v30h0
			c3.195,0,6.398-0.51,9.487-1.54c7.548-2.516,13.788-7.927,17.346-15.044L116.253,385l0,0l26.833,13.416l0,0
			c3.558-7.116,4.144-15.355,1.627-22.903c-2.516-7.548-7.927-13.788-15.044-17.346l-13.416-6.708V385l0,0v-33.541l-72.084-36.042
			C39.964,313.314,35.367,312.25,30.752,312.25L30.752,312.25z M116.253,385l-85.5-42.75L116.253,385L116.253,385L116.253,385z
			 M116.253,355L116.253,355l0,30l0,0l0,0l0,0l0,0l0,0l0,0l0,0l0,0l0,0l-85.5,42.75l85.5-42.75l-33.541-16.771l-65.375,32.688
			c-7.117,3.558-12.528,9.798-15.044,17.346c-2.517,7.548-1.931,15.787,1.627,22.903c3.558,7.117,9.798,12.528,17.346,15.044
			c3.087,1.029,6.292,1.54,9.486,1.54c4.615,0,9.211-1.064,13.417-3.167l72.084-36.042V385l0,0v33.541l13.416-6.708
			c5.84-2.92,10.531-7.645,13.417-13.417L116.253,385l0,0l26.833,13.416c0.631-1.262,1.176-2.574,1.627-3.929
			c2.517-7.548,1.931-15.787-1.627-22.903c-3.558-7.117-9.798-12.528-17.346-15.044C122.652,355.511,119.448,355,116.253,355
			L116.253,355z M116.253,355c-4.615,0-9.211,1.064-13.416,3.167l-20.125,10.063L116.253,385l0,0V355L116.253,355z M116.252,355
			c-3.195,0-6.398,0.51-9.486,1.54c-7.548,2.516-13.788,7.927-17.346,15.044L116.253,385l0,0L89.42,371.584c0,0,0,0,0,0
			c-3.558,7.116-4.144,15.355-1.627,22.903c2.516,7.548,7.927,13.788,15.044,17.346l13.416,6.708V385l0,0v33.541l72.084,36.042
			c4.205,2.103,8.802,3.167,13.417,3.167c3.195,0,6.398-0.51,9.487-1.54c7.548-2.516,13.788-7.927,17.346-15.044
			c3.558-7.116,4.144-15.355,1.627-22.903c-2.516-7.548-7.927-13.788-15.044-17.346l-85.5-42.75
			C125.464,356.064,120.868,355,116.252,355l0,30l0,0L116.252,355L116.252,355L116.252,355z M116.253,385l85.5,42.75L116.253,385
			L116.253,385z M116.253,355v30l0,0V355c-7.956,0-15.587,3.161-21.213,8.787c-2.302,2.302-4.191,4.938-5.62,7.797L116.253,385l0,0
			L89.42,371.584c-2.063,4.127-3.167,8.715-3.167,13.416v85.5c0,7.956,3.161,15.587,8.787,21.213s13.257,8.787,21.213,8.787
			s15.587-3.161,21.213-8.787s8.787-13.257,8.787-21.213V400l-30-15l0,0l30,15v-15c0-7.956-3.161-15.587-8.787-21.213
			S124.209,355,116.253,355L116.253,355z M116.253,385v85.5V385L116.253,385z"/>
	</g>
	<g display="inline">
		<path fill="#FFFFFF" d="M384.253,269c-7.956,0-15.587,3.161-21.213,8.787s-8.787,13.257-8.787,21.213v70.5l30,15l0,0l-30-15v15
			c0,7.956,3.161,15.587,8.787,21.213s13.257,8.787,21.213,8.787v-30l0,0v30l0,0c7.956,0,15.587-3.161,21.213-8.787
			c2.302-2.302,4.19-4.938,5.62-7.797L384.253,384.5l0,0l26.833,13.416c2.063-4.127,3.167-8.715,3.167-13.416V299
			c0-7.956-3.161-15.587-8.787-21.213S392.209,269,384.253,269L384.253,269z M384.253,384.5V299V384.5L384.253,384.5L384.253,384.5z
			 M469.754,311.75c-4.615,0-9.212,1.064-13.417,3.167l-72.084,36.042V384.5l0,0v-33.541l-13.416,6.708
			c-5.84,2.92-10.531,7.645-13.417,13.417l26.833,13.416l0,0l-26.833-13.416c-0.631,1.262-1.176,2.574-1.627,3.929
			c-2.517,7.548-1.931,15.787,1.627,22.903c3.558,7.117,9.798,12.528,17.346,15.044c3.088,1.029,6.292,1.54,9.487,1.54l0,0v-30l0,0
			v30c4.615,0,9.211-1.064,13.416-3.167l20.125-10.063L384.253,384.5l0,0l33.541,16.771l65.375-32.688
			c7.117-3.558,12.528-9.798,15.044-17.346c2.518-7.548,1.931-15.787-1.627-22.903c-3.558-7.117-9.798-12.528-17.346-15.044
			C476.152,312.261,472.948,311.75,469.754,311.75L469.754,311.75z M384.253,384.5l85.5-42.75L384.253,384.5L384.253,384.5z
			 M298.753,311.75c-3.195,0-6.398,0.51-9.487,1.54c-7.548,2.516-13.788,7.927-17.346,15.044
			c-3.558,7.116-4.144,15.355-1.627,22.903c2.516,7.548,7.927,13.788,15.044,17.346l85.5,42.75
			c4.205,2.103,8.802,3.167,13.416,3.167v-30l0,0v30l0,0c3.195,0,6.399-0.51,9.487-1.54c7.548-2.516,13.788-7.927,17.346-15.044
			L384.253,384.5l0,0l26.833,13.416l0,0c3.558-7.116,4.145-15.355,1.627-22.903c-2.516-7.548-7.927-13.788-15.044-17.346
			l-13.416-6.708V384.5l0,0v-33.541l-72.084-36.042C307.964,312.814,303.367,311.75,298.753,311.75L298.753,311.75z M384.253,384.5
			l-85.5-42.75L384.253,384.5L384.253,384.5L384.253,384.5z M384.254,354.5L384.254,354.5l-0.001,30l0,0l0,0l0,0l0,0l0,0l0,0l0,0
			l0,0l0,0l-85.5,42.75l85.5-42.75l-33.541-16.771l-65.375,32.688c-7.117,3.558-12.528,9.798-15.044,17.346
			c-2.517,7.548-1.931,15.787,1.627,22.903c3.558,7.117,9.798,12.528,17.346,15.044c3.088,1.029,6.292,1.54,9.487,1.54
			c4.615,0,9.211-1.064,13.416-3.167l72.084-36.042V384.5l0,0v33.541l13.416-6.708c5.84-2.92,10.531-7.645,13.417-13.417
			L384.253,384.5l0,0l26.833,13.416c0.631-1.262,1.176-2.574,1.627-3.929c2.518-7.548,1.931-15.787-1.627-22.903
			c-3.558-7.117-9.798-12.528-17.346-15.044C390.652,355.011,387.448,354.5,384.254,354.5L384.254,354.5z M384.253,354.5
			c-4.615,0-9.211,1.064-13.416,3.167l-20.125,10.063l33.541,16.771l0,0V354.5L384.253,354.5z M384.253,354.5
			c-3.195,0-6.398,0.51-9.487,1.54c-7.548,2.516-13.788,7.927-17.346,15.044l26.833,13.416l0,0l-26.833-13.416l0,0
			c-3.558,7.116-4.144,15.355-1.627,22.903c2.516,7.548,7.927,13.788,15.044,17.346l13.416,6.708V384.5l0,0v33.541l72.084,36.042
			c4.205,2.103,8.802,3.167,13.416,3.167c3.195,0,6.399-0.51,9.487-1.54c7.548-2.516,13.788-7.927,17.346-15.044
			c3.558-7.116,4.145-15.355,1.627-22.903c-2.516-7.548-7.927-13.788-15.044-17.346l-85.5-42.75
			C393.464,355.564,388.867,354.5,384.253,354.5v30l0,0V354.5L384.253,354.5L384.253,354.5z M384.253,384.5l85.5,42.75
			L384.253,384.5L384.253,384.5z M384.253,354.5v30l0,0V354.5c-7.956,0-15.587,3.161-21.213,8.787
			c-2.302,2.302-4.19,4.938-5.62,7.797l26.833,13.416l0,0l-26.833-13.416c-2.063,4.127-3.167,8.715-3.167,13.416V470
			c0,7.956,3.161,15.587,8.787,21.213S376.297,500,384.253,500s15.587-3.161,21.213-8.787s8.787-13.257,8.787-21.213v-70.5l-30-15
			l0,0l30,15v-15c0-7.956-3.161-15.587-8.787-21.213S392.209,354.5,384.253,354.5L384.253,354.5z M384.253,384.5V470V384.5
			L384.253,384.5z"/>
	</g>
	<g display="inline">
		<path fill="#FFFFFF" d="M250,1c-7.956,0-15.587,3.161-21.213,8.787S220,23.044,220,31v70.5l30,15l0,0l-30-15v15
			c0,7.956,3.161,15.587,8.787,21.213S242.044,146.5,250,146.5v-30l0,0v30l0,0c7.956,0,15.587-3.161,21.213-8.787
			c2.302-2.302,4.19-4.939,5.62-7.796L250,116.5l0,0l26.833,13.417c2.063-4.128,3.167-8.715,3.167-13.417V31
			c0-7.956-3.161-15.587-8.787-21.213S257.956,1,250,1L250,1z M250,116.5V31V116.5L250,116.5L250,116.5z M335.5,43.75
			c-4.614,0-9.211,1.064-13.416,3.167L250,82.959V116.5l0,0V82.959l-13.416,6.708c-5.84,2.919-10.531,7.645-13.417,13.417L250,116.5
			l0,0l-26.833-13.417c-0.631,1.262-1.176,2.575-1.627,3.93c-2.517,7.548-1.931,15.787,1.627,22.903
			c3.558,7.117,9.798,12.528,17.346,15.044c3.087,1.03,6.292,1.54,9.486,1.54h0v-30l0,0v30c4.615,0,9.211-1.064,13.416-3.167
			l20.125-10.063L250,116.5l0,0l33.541,16.771l65.375-32.688c7.117-3.558,12.528-9.798,15.044-17.346
			c2.517-7.548,1.931-15.787-1.627-22.903c-3.558-7.117-9.798-12.528-17.346-15.044C341.899,44.26,338.695,43.75,335.5,43.75
			L335.5,43.75z M250,116.5l85.5-42.75L250,116.5L250,116.5z M164.5,43.75c-3.195,0-6.398,0.51-9.486,1.54
			c-7.548,2.516-13.788,7.927-17.346,15.044c-3.558,7.116-4.144,15.355-1.627,22.903c2.516,7.548,7.927,13.788,15.044,17.346
			l85.5,42.75c4.205,2.103,8.801,3.167,13.416,3.167v-30l0,0v30h0c3.195,0,6.399-0.51,9.487-1.54
			c7.548-2.516,13.788-7.927,17.346-15.044L250,116.5l0,0l26.833,13.417c0,0,0,0,0,0c3.558-7.116,4.144-15.355,1.627-22.903
			c-2.516-7.548-7.927-13.788-15.044-17.346L250,82.959V116.5l0,0V82.959l-72.084-36.042C173.711,44.814,169.114,43.75,164.5,43.75
			L164.5,43.75z M250,116.5l-85.5-42.75L250,116.5L250,116.5L250,116.5z M250,86.5L250,86.5l0,30l0,0l0,0l0,0l0,0l0,0l0,0l0,0l0,0
			l0,0l-85.5,42.75L250,116.5l-33.541-16.771l-65.375,32.688c-7.117,3.558-12.528,9.798-15.044,17.346
			c-2.517,7.548-1.931,15.787,1.627,22.903c3.558,7.117,9.798,12.528,17.346,15.044c3.087,1.03,6.292,1.54,9.486,1.54
			c4.615,0,9.211-1.064,13.417-3.167L250,150.041V116.5l0,0v33.541l13.416-6.708c5.84-2.919,10.531-7.645,13.417-13.417L250,116.5
			l0,0l26.833,13.417c0.631-1.262,1.176-2.575,1.627-3.93c2.517-7.548,1.931-15.787-1.627-22.903
			c-3.558-7.117-9.798-12.528-17.346-15.044C256.399,87.01,253.195,86.5,250,86.5L250,86.5z M250,86.5
			c-4.615,0-9.211,1.064-13.416,3.167l-20.125,10.063L250,116.5l0,0V86.5L250,86.5z M250,86.5c-3.195,0-6.398,0.51-9.486,1.54
			c-7.548,2.516-13.788,7.927-17.346,15.044L250,116.5l0,0l-26.833-13.417c0,0,0,0,0,0c-3.558,7.116-4.144,15.355-1.627,22.903
			c2.516,7.548,7.927,13.788,15.044,17.346L250,150.041V116.5l0,0v33.541l72.084,36.042c4.205,2.103,8.802,3.167,13.416,3.167
			c3.195,0,6.399-0.51,9.487-1.54c7.548-2.516,13.788-7.927,17.346-15.044c3.558-7.116,4.144-15.355,1.627-22.903
			c-2.516-7.548-7.927-13.788-15.044-17.346l-85.5-42.75C259.211,87.564,254.614,86.5,250,86.5l0,30l0,0L250,86.5L250,86.5L250,86.5
			z M250,116.5l85.5,42.75L250,116.5L250,116.5z M250,86.5v30l0,0V86.5c-7.956,0-15.587,3.161-21.213,8.787
			c-2.302,2.302-4.191,4.939-5.62,7.796L250,116.5l0,0l-26.833-13.417c-2.064,4.128-3.167,8.715-3.167,13.417V202
			c0,7.956,3.161,15.587,8.787,21.213S242.044,232,250,232s15.587-3.161,21.213-8.787S280,209.956,280,202v-70.5l-30-15l0,0l30,15
			v-15c0-7.956-3.161-15.587-8.787-21.213S257.956,86.5,250,86.5L250,86.5z M250,116.5V202V116.5L250,116.5z"/>
	</g>
</g>
<g id="sun_icon" display="none">
	<g display="inline">
		<path fill="#FFFFFF" d="M250,2c-7.956,0-15.587,3.161-21.213,8.787l-55.065,55.065H95.85c-7.956,0-15.587,3.161-21.213,8.787
			S65.85,87.896,65.85,95.852v77.872l-55.063,55.063C5.161,234.413,2,242.043,2,250c0,7.956,3.161,15.587,8.787,21.213
			l55.063,55.064v77.873c0,7.956,3.161,15.587,8.787,21.213s13.257,8.787,21.213,8.787h77.871l55.066,55.063
			C234.413,494.839,242.044,498,250,498c7.957,0,15.587-3.161,21.213-8.787l55.063-55.063h77.873c7.956,0,15.587-3.161,21.213-8.787
			s8.787-13.257,8.787-21.213v-77.873l55.063-55.064C494.839,265.587,498,257.956,498,250c0-7.957-3.161-15.587-8.787-21.213
			l-55.063-55.063V95.852c0-7.956-3.161-15.587-8.787-21.213s-13.257-8.787-21.213-8.787h-77.872l-55.063-55.065
			C265.587,5.161,257.957,2,250,2L250,2z M95.85,95.852h90.298L250,32l63.85,63.852h90.3v90.298L468,250l0,0l0,0l-63.851,63.851
			v90.3l0,0l0,0h-90.3L250,468l-63.852-63.85H95.85v-90.3L32,250l0,0l0,0l63.85-63.85V95.852L95.85,95.852L95.85,95.852z"/>
	</g>
</g>
<g id="Cloud_Icon" display="none">
	<g display="inline">
		<path fill="#FFFFFF" d="M317.919,105.899c-14.351,0-28.591,1.909-42.325,5.673c-13.327,3.652-26.149,9.042-38.11,16.019
			c-16.18,9.439-30.583,21.677-42.515,36.023c-0.66-0.174-1.321-0.341-1.984-0.504c-9.54-2.338-19.385-3.523-29.263-3.523
			c-16.594,0-32.707,3.257-47.893,9.68c-7.295,3.086-14.33,6.904-20.908,11.347c-6.507,4.396-12.626,9.445-18.185,15.004
			c-5.559,5.559-10.607,11.678-15.004,18.185c-4.443,6.578-8.261,13.613-11.347,20.908c-6.423,15.186-9.68,31.299-9.68,47.893
			c0,2.355,0.067,4.708,0.201,7.055c-0.67,0.477-1.334,0.962-1.992,1.457c-7.477,5.622-14.04,12.318-19.508,19.904
			c-5.548,7.698-9.857,16.16-12.809,25.152C3.547,345.464,2,355.167,2,365.011c0,23.076,8.553,45.174,24.084,62.225
			c14.247,15.639,33.262,25.846,53.992,29.086c2.617,0.734,5.343,1.117,8.109,1.117h319.631c0.752,0,1.501-0.028,2.246-0.085
			c11.685-0.435,23.01-3.031,33.688-7.726c10.801-4.748,20.48-11.436,28.771-19.877c8.3-8.451,14.815-18.261,19.365-29.158
			c4.716-11.297,7.108-23.268,7.108-35.582c0-8.134-1.063-16.215-3.161-24.018c-2.037-7.581-5.045-14.886-8.941-21.715
			c-3.662-6.421-8.092-12.377-13.156-17.732c2.68-11.684,4.031-23.659,4.031-35.796c0-10.826-1.092-21.654-3.246-32.184
			c-2.104-10.277-5.241-20.386-9.327-30.046c-4.01-9.478-8.971-18.618-14.744-27.165c-5.714-8.458-12.275-16.41-19.501-23.636
			c-7.227-7.226-15.178-13.788-23.636-19.502c-8.548-5.774-17.688-10.735-27.165-14.744c-9.66-4.086-19.77-7.224-30.047-9.327
			C339.573,106.992,328.745,105.899,317.919,105.899L317.919,105.899z M206.058,199.788c22.596-38.237,64.23-63.889,111.861-63.889
			c71.714,0,129.85,58.137,129.85,129.851l0,0l0,0c0,16.248-2.992,31.794-8.441,46.129c17.8,10.993,29.669,30.67,29.669,53.132l0,0
			l0,0c0,34.058-27.28,61.729-61.18,62.396v0.031l0,0l0,0H88.185v-0.313C56.638,423.993,32,397.381,32,365.011l0,0l0,0
			c0-27.215,17.415-50.353,41.708-58.897c-1.957-7.51-3.003-15.388-3.003-23.51l0,0l0,0c0-51.371,41.646-93.017,93.017-93.017
			C178.975,189.587,193.355,193.282,206.058,199.788L206.058,199.788z M408.407,457.401c0.03-0.001,0.062-0.002,0.092-0.002
			C408.469,457.399,408.438,457.4,408.407,457.401L408.407,457.401z"/>
	</g>
</g>
<g id="light_rain_icon">
	<g>
		<path fill="#FFFFFF" d="M110.083,301.936c-0.027,0-0.054,0-0.081,0c-3.765,0.012-9.43,0.922-15.043,5.182
			c-0.624,0.475-1.255,0.992-1.988,1.629c-0.87,0.756-1.938,1.728-3.263,2.976c-2.384,2.243-5.556,5.328-9.172,8.92
			c-4.928,4.895-14.973,14.999-26.884,27.679c-11.418,12.154-21.047,22.944-28.617,32.069
			c-13.913,16.771-18.03,24.556-20.063,29.464c-3.364,8.121-5.037,16.672-4.972,25.415c0.064,8.431,1.736,16.667,4.972,24.479
			c3.236,7.811,7.876,14.816,13.794,20.823c6.137,6.229,13.365,11.092,21.485,14.456c7.963,3.299,16.352,4.973,24.93,4.973
			c6.347,0,12.655-0.928,18.749-2.759c6.038-1.813,11.772-4.485,17.042-7.94c10.966-7.188,19.422-17.407,24.454-29.552
			c2.046-4.941,4.647-13.392,6.617-35.08c1.061-11.69,1.844-26.091,2.328-42.801c0.485-16.759,0.532-31.278,0.517-38.44
			c-0.009-4.906-0.053-9.278-0.125-12.645c-0.116-5.545-0.194-9.207-2.077-13.749c-0.079-0.19-0.161-0.38-0.244-0.569
			C128.521,307.639,119.744,301.936,110.083,301.936L110.083,301.936z M24.446,434.838c-0.007-5.212,0.993-10.513,3.112-15.629
			c8.549-20.638,81.042-92.822,82.525-92.827c0.011,0,0.018,0.004,0.021,0.011c0.167,0.402,0.341,7.979,0.341,19.261
			c0.002,30.879-1.296,89.513-7.604,104.738c-6.5,15.689-21.672,25.162-37.66,25.162c-5.197,0-10.475-0.998-15.575-3.111
			C33.936,465.95,24.468,450.807,24.446,434.838L24.446,434.838z"/>
	</g>
	<g>
		<path fill="#FFFFFF" d="M264.084,256.936c-0.027,0-0.055,0-0.081,0c-3.765,0.012-9.43,0.922-15.043,5.182
			c-0.624,0.475-1.255,0.992-1.987,1.629c-0.871,0.756-1.938,1.728-3.263,2.976c-2.384,2.243-5.556,5.328-9.172,8.92
			c-4.928,4.895-14.973,14.999-26.884,27.679c-11.418,12.154-21.047,22.944-28.617,32.069
			c-13.913,16.771-18.03,24.556-20.063,29.464c-3.364,8.121-5.037,16.672-4.972,25.415c0.064,8.431,1.736,16.667,4.972,24.479
			c3.236,7.811,7.876,14.816,13.794,20.823c6.137,6.229,13.365,11.092,21.485,14.456c7.963,3.299,16.352,4.973,24.93,4.973
			c6.347,0,12.655-0.928,18.749-2.759c6.038-1.813,11.771-4.485,17.042-7.94c10.966-7.188,19.423-17.407,24.454-29.552
			c2.045-4.941,4.646-13.392,6.617-35.08c1.061-11.69,1.844-26.091,2.328-42.801c0.484-16.759,0.531-31.278,0.517-38.44
			c-0.009-4.906-0.054-9.278-0.124-12.645c-0.117-5.545-0.195-9.207-2.078-13.749c-0.078-0.19-0.16-0.38-0.244-0.569
			C282.521,262.639,273.744,256.936,264.084,256.936L264.084,256.936z M178.446,389.838c-0.007-5.212,0.993-10.513,3.112-15.629
			c8.549-20.638,81.042-92.822,82.526-92.827c0.01,0,0.018,0.004,0.021,0.011c0.166,0.402,0.34,7.979,0.341,19.261
			c0.002,30.879-1.296,89.513-7.604,104.738c-6.5,15.689-21.672,25.162-37.66,25.162c-5.197,0-10.475-0.998-15.575-3.111
			C187.936,420.95,178.468,405.807,178.446,389.838L178.446,389.838z"/>
	</g>
	<g>
		<path fill="#FFFFFF" d="M414.084,301.936c-0.027,0-0.055,0-0.081,0c-3.765,0.012-9.43,0.922-15.043,5.182
			c-0.624,0.475-1.255,0.992-1.987,1.629c-0.871,0.756-1.938,1.728-3.264,2.976c-2.384,2.243-5.555,5.328-9.172,8.92
			c-4.928,4.895-14.973,14.999-26.884,27.679c-11.419,12.154-21.047,22.944-28.616,32.069
			c-13.913,16.771-18.03,24.556-20.063,29.464c-3.364,8.121-5.036,16.672-4.972,25.415c0.064,8.431,1.736,16.667,4.972,24.479
			c3.235,7.811,7.876,14.816,13.794,20.823c6.137,6.229,13.365,11.092,21.485,14.456c7.963,3.299,16.353,4.973,24.931,4.973
			c6.346,0,12.654-0.928,18.748-2.759c6.038-1.813,11.771-4.485,17.042-7.94c10.966-7.188,19.423-17.407,24.454-29.552
			c2.045-4.941,4.646-13.392,6.617-35.08c1.061-11.69,1.844-26.091,2.328-42.801c0.484-16.759,0.531-31.278,0.517-38.44
			c-0.009-4.906-0.054-9.278-0.124-12.645c-0.117-5.545-0.195-9.207-2.078-13.749c-0.078-0.19-0.16-0.38-0.244-0.569
			C432.521,307.639,423.744,301.936,414.084,301.936L414.084,301.936z M328.446,434.838c-0.007-5.212,0.993-10.513,3.112-15.629
			c8.549-20.638,81.041-92.822,82.525-92.827c0.01,0,0.018,0.004,0.021,0.011c0.166,0.402,0.34,7.979,0.341,19.261
			c0.002,30.879-1.296,89.513-7.604,104.738c-6.5,15.689-21.673,25.162-37.659,25.162c-5.197,0-10.476-0.998-15.575-3.111
			C337.936,465.95,328.468,450.807,328.446,434.838L328.446,434.838z"/>
	</g>
	<g>
		<g>
			<path fill="#FFFFFF" d="M339.667,363.157h-65.695c-0.64,10.69-1.402,18.919-2.189,25.281h65.642
				c6.666-8.106,15.981-18.721,29.119-32.706c0.508-0.541,1.008-1.07,1.508-1.601c-8.131,5.499-17.877,8.792-28.384,8.999V363.157z
				 M122.113,381.553c-0.069,2.375-0.143,4.664-0.222,6.886h43.343c0.169-6.401,1.5-12.784,4.024-18.879c0-0.001,0-0.001,0-0.001
				c0.484-1.168,1.277-3.077,3.31-6.401h-50.065C122.426,368.73,122.304,374.961,122.113,381.553z M497.336,290.31
				c-1.717-6.388-4.251-12.544-7.535-18.299c-3.086-5.411-6.818-10.43-11.086-14.943c2.258-9.845,3.396-19.937,3.396-30.165
				c0-9.123-0.92-18.248-2.735-27.121c-1.772-8.661-4.417-17.179-7.859-25.32c-3.38-7.987-7.56-15.689-12.426-22.892
				c-4.814-7.127-10.344-13.829-16.433-19.918c-6.09-6.089-12.791-11.619-19.918-16.435c-7.203-4.866-14.905-9.046-22.893-12.424
				c-8.141-3.443-16.659-6.088-25.32-7.86c-8.873-1.815-17.998-2.736-27.121-2.736c-12.093,0-24.094,1.609-35.668,4.78
				c-1.992,0.546-3.965,1.155-5.928,1.793c-2.95-0.955-5.929-1.824-8.936-2.574V60.229c0-6.705-2.664-13.135-7.404-17.876
				c-4.741-4.741-11.172-7.405-17.877-7.405h-50.265L185.788-0.595C181.047-5.336,174.616-8,167.911-8
				c-6.705,0-13.135,2.664-17.876,7.405l-35.543,35.542H64.228c-6.705,0-13.135,2.664-17.876,7.405
				c-4.741,4.741-7.405,11.171-7.405,17.876v50.264L3.405,146.035C-1.336,150.776-4,157.206-4,163.911s2.664,13.135,7.405,17.876
				l30.863,30.863c-0.424,1.485-0.815,2.98-1.171,4.483c-1.854,7.818-2.794,15.883-2.794,23.972c0,1.985,0.057,3.967,0.169,5.945
				c-0.564,0.401-1.124,0.811-1.679,1.228c-6.301,4.738-11.832,10.38-16.44,16.773c-4.675,6.487-8.306,13.618-10.793,21.196
				c-2.571,7.83-3.874,16.007-3.874,24.303c0,19.446,7.208,38.067,20.295,52.437c6.62,7.268,14.467,13.134,23.1,17.4
				c4.93-5.682,10.869-12.291,18.023-19.977c-20.823-7.006-35.824-26.677-35.824-49.86c0-22.935,14.676-42.433,35.147-49.633
				c-1.649-6.329-2.531-12.968-2.531-19.812c0-43.29,35.095-78.385,78.386-78.385c12.854,0,24.972,3.114,35.676,8.596
				c19.042-32.223,54.127-53.839,94.265-53.839c2.478,0,4.933,0.09,7.369,0.252v0.021c56.848,3.943,101.741,51.303,101.741,109.152
				c0,13.692-2.521,26.792-7.114,38.873c15,9.264,25.002,25.846,25.002,44.774c0,10.154-2.889,19.628-7.873,27.666
				c4.135-4.221,7.507-7.599,9.773-9.85l8.931-8.687c3.987-3.752,6.869-6.463,11.997-6.46c0.919,0,1.822,0.104,2.695,0.303
				c0.037-0.989,0.072-1.979,0.072-2.973c0-6.854-0.896-13.664-2.664-20.24c-1.717-6.388-4.251-12.544-7.535-18.299
				c-3.086-5.411-6.818-10.43-11.086-14.943c2.258-9.845,3.396-19.937,3.396-30.165c0-9.124-0.92-18.248-2.735-27.122
				c-1.772-8.661-4.417-17.179-7.859-25.32c-3.38-7.987-7.56-15.689-12.426-22.892c-4.814-7.127-10.344-13.829-16.433-19.918
				c-5.118-5.118-10.673-9.834-16.545-14.07c1.485-0.061,2.975-0.104,4.475-0.104c60.434,0,109.425,48.992,109.425,109.425
				c0,13.692-2.521,26.793-7.114,38.873c15,9.264,25.002,25.846,25.002,44.774c0,27.575-21.225,50.17-48.227,52.398
				c-0.077,5.368-0.197,11.326-0.379,17.604c-0.078,2.688-0.162,5.273-0.253,7.766c9.562-0.453,18.832-2.614,27.585-6.462
				c9.102-4.001,17.259-9.637,24.245-16.75c6.994-7.122,12.485-15.389,16.319-24.572c3.974-9.52,5.99-19.607,5.99-29.984
				C500,303.695,499.104,296.886,497.336,290.31z M271.594,92.402c-2.453-0.133-4.911-0.206-7.369-0.206
				c-12.093,0-24.093,1.609-35.667,4.78c-11.23,3.078-22.036,7.62-32.115,13.5c-13.634,7.954-25.772,18.267-35.827,30.356
				c-0.557-0.146-1.114-0.288-1.672-0.425c-8.04-1.97-16.335-2.969-24.66-2.969c-13.984,0-27.563,2.745-40.359,8.158
				c-6.147,2.6-12.076,5.817-17.62,9.562c-5.483,3.705-10.64,7.959-15.324,12.644c-4.685,4.684-8.938,9.841-12.644,15.324
				c-1.059,1.568-2.071,3.169-3.043,4.795l-24.012-24.012l42.947-42.946V60.229h60.736l42.947-42.947l42.946,42.947h60.737V92.402z"
				/>
		</g>
	</g>
</g>
<g id="Rain_Icon" display="none">
	<g display="inline">
		<path fill="#FFFFFF" d="M210.093,250.371c-0.033,0-0.066,0-0.099,0c-4.619,0.015-11.571,1.131-18.46,6.359
			c-0.765,0.58-1.541,1.216-2.44,1.996c-1.068,0.929-2.377,2.123-4.004,3.653c-2.926,2.754-6.818,6.539-11.256,10.947
			c-6.047,6.006-18.374,18.406-32.993,33.967c-14.012,14.916-25.828,28.157-35.119,39.357c-17.072,20.58-22.125,30.134-24.62,36.156
			c-4.128,9.967-6.181,20.46-6.101,31.189c0.078,10.347,2.13,20.454,6.101,30.041c3.971,9.586,9.666,18.184,16.928,25.555
			c7.531,7.645,16.402,13.612,26.367,17.74c9.772,4.049,20.067,6.103,30.594,6.103c7.789,0,15.53-1.139,23.008-3.386
			c7.41-2.226,14.447-5.504,20.914-9.744c13.458-8.822,23.835-21.362,30.01-36.266c2.511-6.065,5.703-16.437,8.119-43.051
			c1.303-14.347,2.264-32.019,2.858-52.525c0.596-20.565,0.654-38.383,0.635-47.174c-0.012-6.021-0.065-11.386-0.153-15.517
			c-0.143-6.805-0.238-11.3-2.549-16.873c-0.097-0.234-0.197-0.468-0.3-0.699C232.719,257.37,221.948,250.371,210.093,250.371
			L210.093,250.371z M104.999,413.469c-0.008-6.396,1.219-12.901,3.819-19.18c10.491-25.327,99.453-113.912,101.275-113.918
			c0.013,0,0.022,0.005,0.026,0.014c0.205,0.494,0.418,9.792,0.419,23.637c0.002,37.895-1.592,109.85-9.331,128.535
			c-7.977,19.254-26.596,30.879-46.216,30.879c-6.377,0-12.855-1.226-19.113-3.818C116.645,451.649,105.025,433.065,104.999,413.469
			L104.999,413.469z"/>
	</g>
	<g display="inline">
		<path fill="#FFFFFF" d="M447.093,250.371c-0.033,0-0.065,0-0.099,0c-4.62,0.015-11.572,1.131-18.461,6.36
			c-0.766,0.58-1.54,1.216-2.439,1.996c-1.067,0.929-2.378,2.122-4.004,3.653c-2.926,2.753-6.817,6.538-11.256,10.946
			c-6.047,6.007-18.375,18.407-32.992,33.967c-14.013,14.916-25.829,28.157-35.119,39.357
			c-17.072,20.58-22.126,30.134-24.621,36.156c-4.128,9.968-6.181,20.46-6.1,31.189c0.077,10.347,2.129,20.454,6.101,30.041
			c3.971,9.586,9.666,18.184,16.929,25.555c7.529,7.644,16.399,13.612,26.366,17.74c9.771,4.049,20.066,6.103,30.594,6.103
			c7.789,0,15.53-1.139,23.008-3.386c7.41-2.226,14.447-5.504,20.914-9.744c13.458-8.822,23.835-21.362,30.01-36.266
			c2.511-6.064,5.703-16.435,8.12-43.051c1.302-14.347,2.263-32.019,2.857-52.525c0.596-20.565,0.653-38.384,0.635-47.174
			c-0.012-6.021-0.065-11.386-0.153-15.517c-0.143-6.805-0.238-11.3-2.549-16.873c-0.097-0.234-0.197-0.468-0.3-0.699
			C469.719,257.37,458.948,250.371,447.093,250.371L447.093,250.371z M341.999,413.469c-0.008-6.396,1.219-12.901,3.819-19.18
			c10.49-25.327,99.454-113.912,101.274-113.918c0.014,0,0.022,0.005,0.026,0.014c0.204,0.494,0.418,9.792,0.419,23.637
			c0.002,37.895-1.591,109.85-9.331,128.535c-7.977,19.254-26.596,30.879-46.216,30.879c-6.376,0-12.855-1.226-19.113-3.818
			C353.646,451.649,342.025,433.065,341.999,413.469L341.999,413.469z"/>
	</g>
	<g display="inline">
		<path fill="#FFFFFF" d="M387.093,9.371c-0.033,0-0.065,0-0.099,0c-4.62,0.015-11.572,1.131-18.461,6.36
			c-0.766,0.581-1.54,1.216-2.439,1.997c-1.067,0.928-2.378,2.122-4.004,3.653c-2.926,2.753-6.817,6.538-11.256,10.946
			c-6.047,6.007-18.375,18.407-32.992,33.967c-14.013,14.916-25.829,28.157-35.119,39.357
			c-17.072,20.58-22.126,30.134-24.621,36.157c-4.128,9.967-6.181,20.46-6.1,31.189c0.077,10.347,2.129,20.454,6.101,30.041
			c3.971,9.586,9.666,18.184,16.929,25.555c7.529,7.643,16.399,13.612,26.366,17.74c9.771,4.049,20.066,6.103,30.594,6.103
			c7.789,0,15.53-1.139,23.008-3.386c7.41-2.226,14.447-5.504,20.914-9.744c13.458-8.823,23.835-21.363,30.01-36.266
			c2.511-6.064,5.703-16.435,8.12-43.051c1.302-14.346,2.263-32.018,2.857-52.525c0.596-20.566,0.653-38.384,0.635-47.174
			c-0.012-6.02-0.065-11.386-0.153-15.517c-0.143-6.804-0.238-11.299-2.549-16.873c-0.097-0.234-0.197-0.467-0.3-0.699
			C409.719,16.37,398.948,9.371,387.093,9.371L387.093,9.371z M281.999,172.469c-0.008-6.397,1.219-12.901,3.819-19.18
			c10.49-25.327,99.454-113.912,101.274-113.918c0.014,0,0.022,0.005,0.026,0.014c0.204,0.494,0.418,9.792,0.419,23.637
			c0.002,37.895-1.591,109.849-9.331,128.536c-7.977,19.254-26.596,30.879-46.216,30.879c-6.376,0-12.855-1.226-19.113-3.819
			C293.646,210.65,282.025,192.065,281.999,172.469L281.999,172.469z"/>
	</g>
	<g display="inline">
		<path fill="#FFFFFF" d="M161.093,9.371c-0.033,0-0.066,0-0.099,0c-4.62,0.015-11.572,1.131-18.461,6.36
			c-0.765,0.581-1.54,1.216-2.439,1.997c-1.068,0.928-2.378,2.122-4.004,3.653c-2.926,2.753-6.818,6.538-11.256,10.946
			c-6.047,6.007-18.375,18.407-32.992,33.967C77.829,81.21,66.013,94.451,56.723,105.651c-17.073,20.58-22.126,30.134-24.621,36.157
			c-4.128,9.966-6.181,20.46-6.101,31.189c0.078,10.347,2.13,20.454,6.101,30.041c3.971,9.586,9.666,18.184,16.928,25.555
			c7.531,7.644,16.402,13.612,26.367,17.74c9.772,4.049,20.067,6.103,30.594,6.103c7.789,0,15.53-1.139,23.008-3.386
			c7.41-2.226,14.447-5.504,20.914-9.744c13.458-8.823,23.835-21.363,30.01-36.266c2.511-6.064,5.703-16.435,8.12-43.051
			c1.302-14.346,2.263-32.018,2.857-52.525c0.596-20.566,0.654-38.384,0.635-47.174c-0.012-6.02-0.065-11.386-0.153-15.517
			c-0.143-6.804-0.238-11.299-2.549-16.873c-0.097-0.234-0.197-0.467-0.3-0.699C183.719,16.37,172.948,9.371,161.093,9.371
			L161.093,9.371z M55.999,172.469c-0.008-6.397,1.218-12.901,3.819-19.18c10.491-25.327,99.454-113.912,101.275-113.918
			c0.013,0,0.022,0.005,0.026,0.014c0.205,0.494,0.418,9.792,0.419,23.637c0.002,37.895-1.591,109.849-9.331,128.536
			c-7.977,19.254-26.596,30.879-46.216,30.879c-6.377,0-12.855-1.226-19.113-3.819C67.645,210.65,56.025,192.065,55.999,172.469
			L55.999,172.469z"/>
	</g>
</g>
<g id="thunder_Icon" display="none">
	<path display="inline" fill="#FFFFFF" d="M395.123,224H305.3c-14.527,0-26.969,10.41-29.53,24.711l-23.758,132.656
		c-1.566,8.743,0.823,17.729,6.523,24.542c5.7,6.811,14.125,10.747,23.007,10.747h11.114v53.997
		c0,14.134,9.865,26.351,23.682,29.327c2.115,0.455,4.235,0.676,6.33,0.676c11.587,0,22.398-6.742,27.327-17.65l71.164-157.499
		c4.194-9.285,3.391-20.063-2.134-28.623c-2.086-3.23-4.737-5.979-7.776-8.147l10.683-21.271c4.67-9.3,4.188-20.356-1.274-29.214
		C415.193,229.393,405.53,224,395.123,224L395.123,224z M281.542,386.656L305.3,254h89.823l0,0l0,0l-29.71,59.154h28.407l0,0l0,0
		l-71.164,157.499v-83.997H281.542L281.542,386.656L281.542,386.656L281.542,386.656z"/>
	<g display="inline">
		<polygon fill="#FFFFFF" points="293.044,323.438 194.722,323.438 181.167,353.438 287.671,353.438 		"/>
		<path fill="#FFFFFF" d="M495.835,236.993c-2.037-7.581-5.045-14.886-8.941-21.715c-3.662-6.42-8.092-12.376-13.156-17.732
			c2.68-11.684,4.031-23.659,4.031-35.796c0-10.826-1.092-21.654-3.246-32.184c-2.104-10.277-5.241-20.386-9.327-30.046
			c-4.01-9.478-8.971-18.618-14.744-27.165c-5.714-8.458-12.275-16.41-19.501-23.636c-7.227-7.226-15.178-13.788-23.636-19.502
			c-8.548-5.774-17.688-10.735-27.165-14.744c-9.66-4.086-19.77-7.224-30.047-9.327c-10.529-2.154-21.357-3.247-32.184-3.247
			c-14.351,0-28.591,1.909-42.325,5.673c-13.327,3.652-26.149,9.042-38.11,16.019c-16.18,9.439-30.583,21.677-42.515,36.023
			c-0.66-0.174-1.321-0.341-1.984-0.504c-9.54-2.338-19.385-3.523-29.263-3.523c-16.594,0-32.707,3.257-47.893,9.68
			c-7.295,3.086-14.33,6.904-20.908,11.347c-6.507,4.396-12.626,9.445-18.185,15.004c-5.559,5.559-10.607,11.678-15.004,18.185
			c-4.443,6.578-8.261,13.613-11.347,20.908c-6.423,15.186-9.68,31.299-9.68,47.893c0,2.355,0.067,4.708,0.201,7.054
			c-0.67,0.476-1.334,0.962-1.992,1.457c-7.477,5.622-14.04,12.319-19.508,19.905c-5.548,7.698-9.857,16.16-12.809,25.152
			C3.547,241.464,2,251.167,2,261.011c0,23.076,8.553,45.174,24.084,62.225c14.247,15.639,33.262,25.846,53.992,29.086
			c2.617,0.734,5.343,1.117,8.109,1.117h5.128l5.373-30H88.185v-0.313C56.638,319.993,32,293.381,32,261.011
			c0-27.215,17.415-50.353,41.708-58.898c-1.957-7.509-3.003-15.387-3.003-23.509c0-51.371,41.646-93.017,93.017-93.017
			c15.253,0,29.633,3.695,42.336,10.201c22.596-38.237,64.23-63.889,111.861-63.889c71.714,0,129.85,58.137,129.85,129.851
			c0,16.248-2.992,31.794-8.441,46.129c17.8,10.993,29.669,30.67,29.669,53.132c0,34.058-27.28,61.729-61.18,62.396v0.031h-18.191
			l-13.556,30h31.747c0.752,0,1.501-0.028,2.246-0.085c11.685-0.435,23.01-3.031,33.688-7.726
			c10.801-4.748,20.48-11.436,28.771-19.877c8.3-8.451,14.815-18.261,19.365-29.158c4.716-11.297,7.108-23.268,7.108-35.582
			C498.996,252.877,497.933,244.796,495.835,236.993z"/>
	</g>
	<g display="inline">
		<g>
			<path fill="#FFFFFF" d="M201.123,224H111.3c-14.528,0-26.969,10.41-29.53,24.711L58.012,381.367
				c-1.566,8.743,0.823,17.729,6.523,24.542c5.7,6.811,14.125,10.747,23.007,10.747h11.114v53.997
				c0,14.134,9.865,26.351,23.682,29.327c2.115,0.455,4.235,0.676,6.33,0.676c11.588,0,22.398-6.742,27.328-17.65l71.164-157.499
				c4.195-9.285,3.391-20.063-2.134-28.623c-2.085-3.23-4.736-5.979-7.776-8.147l10.684-21.271c4.67-9.3,4.188-20.356-1.275-29.214
				C221.193,229.393,211.53,224,201.123,224L201.123,224z M87.542,386.656L111.3,254h89.823l0,0l0,0l-29.71,59.154h28.407l0,0l0,0
				l-71.164,157.499v-83.997H87.542L87.542,386.656L87.542,386.656L87.542,386.656z"/>
		</g>
	</g>
</g>
</svg>
