<?xml version="1.0" encoding="utf-8"?>
<!-- Generator: Adobe Illustrator 12.0.0, SVG Export Plug-In . SVG Version: 6.00 Build 51448)  -->
<!DOCTYPE svg PUBLIC "-//W3C//DTD SVG 1.1//EN" "http://www.w3.org/Graphics/SVG/1.1/DTD/svg11.dtd" [
	<!ENTITY ns_svg "http://www.w3.org/2000/svg">
	<!ENTITY ns_xlink "http://www.w3.org/1999/xlink">
]>
<svg  version="1.1" xmlns="&ns_svg;" xmlns:xlink="&ns_xlink;" width="500" height="500" viewBox="0 0 500 500"
	 overflow="visible" enable-background="new 0 0 500 500" xml:space="preserve">
<g id="App_Icon" display="none">
	<polygon display="inline" fill="#FFFF00" points="426.777,323.223 500,250 426.777,176.777 426.777,73.224 323.224,73.224 250,0 
		176.776,73.224 73.223,73.224 73.223,176.777 0,250 73.223,323.223 73.223,426.776 176.776,426.776 250,500 323.224,426.776 
		426.777,426.776 	"/>
	<polygon display="inline" fill="#FFBF00" points="250.001,424.475 126.627,373.377 75.523,250 126.629,126.627 249.999,75.526 
		373.374,126.627 424.478,250.003 373.371,373.372 	"/>
	<circle display="inline" cx="250" cy="250" r="25"/>
	<polygon display="inline" points="250,250 265.301,250 257.65,322.5 250,395 242.35,322.5 234.699,250 	"/>
	<polygon display="inline" points="260.819,239.181 250,228.361 306.675,182.506 363.35,136.65 317.494,193.325 271.639,250 	"/>
	<polygon display="inline" opacity="0.2" points="380.751,144.437 363.25,136.278 238.039,259.354 249.641,396.112 282.025,411.21 
		373.371,373.372 424.478,250.003 	"/>
</g>
<g id="Partly_Cloud_Icon">
	<g>
		<path fill="#FFFFFF" d="M205,1c-7.956,0-15.587,3.161-21.213,8.787L141.61,51.964H81.963c-7.956,0-15.587,3.161-21.213,8.787
			s-8.787,13.257-8.787,21.213v59.647L9.787,183.787C4.161,189.413,1,197.044,1,205s3.161,15.587,8.787,21.213l36.624,36.624
			c-0.503,1.763-0.967,3.536-1.39,5.319c-2.2,9.277-3.316,18.849-3.316,28.447c0,2.355,0.067,4.708,0.201,7.055
			c-0.67,0.477-1.334,0.962-1.992,1.457c-7.477,5.622-14.04,12.318-19.508,19.904c-5.548,7.698-9.857,16.16-12.809,25.152
			C4.547,359.464,3,369.167,3,379.011c0,23.076,8.553,45.174,24.084,62.225c14.247,15.639,33.262,25.846,53.992,29.086
			c2.617,0.734,5.343,1.117,8.109,1.117h319.631c0.752,0,1.501-0.028,2.246-0.085c11.685-0.435,23.01-3.031,33.688-7.726
			c10.801-4.748,20.48-11.436,28.771-19.877c8.3-8.451,14.815-18.261,19.365-29.158c4.716-11.297,7.108-23.268,7.108-35.582
			c0-8.134-1.063-16.215-3.161-24.018c-2.037-7.581-5.045-14.886-8.941-21.715c-3.662-6.421-8.092-12.377-13.156-17.732
			c2.68-11.684,4.031-23.659,4.031-35.796c0-20.645-3.888-40.753-11.556-59.763c-3.688-9.148-8.263-18.006-13.592-26.33
			c-5.271-8.232-11.336-16.027-18.028-23.17c-6.68-7.13-14.052-13.682-21.912-19.475c-7.923-5.838-16.423-10.966-25.265-15.24
			c-9.786-4.73-19.939-8.419-30.379-11.045V81.964c0-7.956-3.161-15.587-8.787-21.213s-13.257-8.787-21.213-8.787H268.39
			L226.214,9.787C220.588,4.161,212.957,1,205,1L205,1z M81.963,81.964h72.073L205,31l50.962,50.964h72.075v68.259
			c67.459,4.68,120.731,60.879,120.731,129.527l0,0l0,0c0,16.248-2.992,31.794-8.441,46.129c17.8,10.993,29.669,30.67,29.669,53.132
			l0,0l0,0c0,34.058-27.28,61.729-61.18,62.396v0.031l0,0l0,0H89.185v-0.313C57.638,437.993,33,411.381,33,379.011l0,0l0,0
			c0-27.215,17.415-50.353,41.708-58.897c-1.957-7.51-3.003-15.388-3.003-23.51l0,0l0,0c0-14.818,3.472-28.825,9.637-41.262L31,205
			l0,0l0,0l50.963-50.963V81.964L81.963,81.964L81.963,81.964z M409.407,471.401c0.03-0.001,0.062-0.002,0.092-0.002
			C409.469,471.399,409.438,471.4,409.407,471.401L409.407,471.401z"/>
	</g>
	<g>
		<path fill="#FFFFFF" d="M318.919,119.899c-14.351,0-28.591,1.909-42.325,5.673c-13.327,3.652-26.149,9.042-38.11,16.019
			c-16.18,9.439-30.583,21.677-42.515,36.023c-0.66-0.174-1.321-0.341-1.984-0.504c-9.54-2.338-19.385-3.523-29.263-3.523
			c-16.594,0-32.707,3.257-47.893,9.68c-7.295,3.086-14.33,6.904-20.908,11.347c-6.507,4.396-12.626,9.445-18.185,15.004
			c-5.559,5.559-10.607,11.678-15.004,18.185c-4.443,6.578-8.261,13.613-11.347,20.908c-6.423,15.187-9.68,31.299-9.68,47.893
			c0,2.355,0.067,4.708,0.201,7.055c-0.67,0.477-1.334,0.962-1.992,1.457c-7.477,5.622-14.04,12.318-19.508,19.904
			c-5.548,7.698-9.857,16.16-12.809,25.152C4.547,359.464,3,369.167,3,379.011c0,23.076,8.553,45.174,24.084,62.225
			c14.247,15.639,33.262,25.846,53.992,29.086c2.617,0.734,5.343,1.117,8.109,1.117h319.631c0.752,0,1.501-0.028,2.246-0.085
			c11.685-0.435,23.01-3.031,33.688-7.726c10.801-4.748,20.48-11.436,28.771-19.877c8.3-8.451,14.815-18.261,19.365-29.158
			c4.716-11.297,7.108-23.268,7.108-35.582c0-8.134-1.063-16.215-3.161-24.018c-2.037-7.581-5.045-14.886-8.941-21.715
			c-3.662-6.421-8.092-12.377-13.156-17.732c2.68-11.684,4.031-23.659,4.031-35.796c0-10.826-1.092-21.654-3.246-32.184
			c-2.104-10.277-5.241-20.386-9.327-30.046c-4.01-9.478-8.971-18.618-14.744-27.165c-5.714-8.458-12.275-16.41-19.501-23.636
			c-7.227-7.226-15.178-13.788-23.636-19.502c-8.548-5.774-17.688-10.735-27.165-14.744c-9.66-4.086-19.77-7.224-30.047-9.327
			C340.573,120.992,329.745,119.899,318.919,119.899L318.919,119.899z M207.058,213.788c22.596-38.237,64.23-63.889,111.861-63.889
			c71.714,0,129.85,58.137,129.85,129.851l0,0l0,0c0,16.248-2.992,31.794-8.441,46.129c17.8,10.993,29.669,30.67,29.669,53.132l0,0
			l0,0c0,34.058-27.28,61.729-61.18,62.396v0.031l0,0l0,0H89.185v-0.313C57.638,437.993,33,411.381,33,379.011l0,0l0,0
			c0-27.215,17.415-50.353,41.708-58.897c-1.957-7.51-3.003-15.388-3.003-23.51l0,0l0,0c0-51.371,41.646-93.017,93.017-93.017
			C179.975,203.587,194.355,207.282,207.058,213.788L207.058,213.788z M409.407,471.401c0.03-0.001,0.062-0.002,0.092-0.002
			C409.469,471.399,409.438,471.4,409.407,471.401L409.407,471.401z"/>
	</g>
</g>
<g id="sun_icon" display="none">
	<g display="inline">
		<path fill="#FFFFFF" d="M250,2c-7.956,0-15.587,3.161-21.213,8.787l-55.065,55.065H95.85c-7.956,0-15.587,3.161-21.213,8.787
			S65.85,87.896,65.85,95.852v77.872l-55.063,55.063C5.161,234.413,2,242.043,2,250c0,7.956,3.161,15.587,8.787,21.213
			l55.063,55.064v77.873c0,7.956,3.161,15.587,8.787,21.213s13.257,8.787,21.213,8.787h77.871l55.066,55.063
			C234.413,494.839,242.044,498,250,498c7.957,0,15.587-3.161,21.213-8.787l55.063-55.063h77.873c7.956,0,15.587-3.161,21.213-8.787
			s8.787-13.257,8.787-21.213v-77.873l55.063-55.064C494.839,265.587,498,257.956,498,250c0-7.957-3.161-15.587-8.787-21.213
			l-55.063-55.063V95.852c0-7.956-3.161-15.587-8.787-21.213s-13.257-8.787-21.213-8.787h-77.872l-55.063-55.065
			C265.587,5.161,257.957,2,250,2L250,2z M95.85,95.852h90.298L250,32l63.85,63.852h90.3v90.298L468,250l0,0l0,0l-63.851,63.851
			v90.3l0,0l0,0h-90.3L250,468l-63.852-63.85H95.85v-90.3L32,250l0,0l0,0l63.85-63.85V95.852L95.85,95.852L95.85,95.852z"/>
	</g>
</g>
<g id="Cloud_Icon" display="none">
	<g display="inline">
		<path fill="#FFFFFF" d="M317.919,105.899c-14.351,0-28.591,1.909-42.325,5.673c-13.327,3.652-26.149,9.042-38.11,16.019
			c-16.18,9.439-30.583,21.677-42.515,36.023c-0.66-0.174-1.321-0.341-1.984-0.504c-9.54-2.338-19.385-3.523-29.263-3.523
			c-16.594,0-32.707,3.257-47.893,9.68c-7.295,3.086-14.33,6.904-20.908,11.347c-6.507,4.396-12.626,9.445-18.185,15.004
			c-5.559,5.559-10.607,11.678-15.004,18.185c-4.443,6.578-8.261,13.613-11.347,20.908c-6.423,15.186-9.68,31.299-9.68,47.893
			c0,2.355,0.067,4.708,0.201,7.055c-0.67,0.477-1.334,0.962-1.992,1.457c-7.477,5.622-14.04,12.318-19.508,19.904
			c-5.548,7.698-9.857,16.16-12.809,25.152C3.547,345.464,2,355.167,2,365.011c0,23.076,8.553,45.174,24.084,62.225
			c14.247,15.639,33.262,25.846,53.992,29.086c2.617,0.734,5.343,1.117,8.109,1.117h319.631c0.752,0,1.501-0.028,2.246-0.085
			c11.685-0.435,23.01-3.031,33.688-7.726c10.801-4.748,20.48-11.436,28.771-19.877c8.3-8.451,14.815-18.261,19.365-29.158
			c4.716-11.297,7.108-23.268,7.108-35.582c0-8.134-1.063-16.215-3.161-24.018c-2.037-7.581-5.045-14.886-8.941-21.715
			c-3.662-6.421-8.092-12.377-13.156-17.732c2.68-11.684,4.031-23.659,4.031-35.796c0-10.826-1.092-21.654-3.246-32.184
			c-2.104-10.277-5.241-20.386-9.327-30.046c-4.01-9.478-8.971-18.618-14.744-27.165c-5.714-8.458-12.275-16.41-19.501-23.636
			c-7.227-7.226-15.178-13.788-23.636-19.502c-8.548-5.774-17.688-10.735-27.165-14.744c-9.66-4.086-19.77-7.224-30.047-9.327
			C339.573,106.992,328.745,105.899,317.919,105.899L317.919,105.899z M206.058,199.788c22.596-38.237,64.23-63.889,111.861-63.889
			c71.714,0,129.85,58.137,129.85,129.851l0,0l0,0c0,16.248-2.992,31.794-8.441,46.129c17.8,10.993,29.669,30.67,29.669,53.132l0,0
			l0,0c0,34.058-27.28,61.729-61.18,62.396v0.031l0,0l0,0H88.185v-0.313C56.638,423.993,32,397.381,32,365.011l0,0l0,0
			c0-27.215,17.415-50.353,41.708-58.897c-1.957-7.51-3.003-15.388-3.003-23.51l0,0l0,0c0-51.371,41.646-93.017,93.017-93.017
			C178.975,189.587,193.355,193.282,206.058,199.788L206.058,199.788z M408.407,457.401c0.03-0.001,0.062-0.002,0.092-0.002
			C408.469,457.399,408.438,457.4,408.407,457.401L408.407,457.401z"/>
	</g>
</g>
</svg>
