<?xml version="1.0" encoding="utf-8"?>
<!-- Generator: Adobe Illustrator 12.0.0, SVG Export Plug-In . SVG Version: 6.00 Build 51448)  -->
<!DOCTYPE svg PUBLIC "-//W3C//DTD SVG 1.1//EN" "http://www.w3.org/Graphics/SVG/1.1/DTD/svg11.dtd" [
	<!ENTITY ns_svg "http://www.w3.org/2000/svg">
	<!ENTITY ns_xlink "http://www.w3.org/1999/xlink">
]>
<svg  version="1.1" xmlns="&ns_svg;" xmlns:xlink="&ns_xlink;" width="500" height="500" viewBox="0 0 500 500"
	 overflow="visible" enable-background="new 0 0 500 500" xml:space="preserve">
<g id="App_Icon" display="none">
	<polygon display="inline" fill="#FFFF00" points="426.777,323.223 500,250 426.777,176.777 426.777,73.224 323.224,73.224 250,0 
		176.776,73.224 73.223,73.224 73.223,176.777 0,250 73.223,323.223 73.223,426.776 176.776,426.776 250,500 323.224,426.776 
		426.777,426.776 	"/>
	<polygon display="inline" fill="#FFBF00" points="250.001,424.475 126.627,373.377 75.523,250 126.629,126.627 249.999,75.526 
		373.374,126.627 424.478,250.003 373.371,373.372 	"/>
	<circle display="inline" cx="250" cy="250" r="25"/>
	<polygon display="inline" points="250,250 265.301,250 257.65,322.5 250,395 242.35,322.5 234.699,250 	"/>
	<polygon display="inline" points="260.819,239.181 250,228.361 306.675,182.506 363.35,136.65 317.494,193.325 271.639,250 	"/>
	<polygon display="inline" opacity="0.2" points="380.751,144.437 363.25,136.278 238.039,259.354 249.641,396.112 282.025,411.21 
		373.371,373.372 424.478,250.003 	"/>
</g>
<g id="Partly_Cloud_Icon" display="none">
	<g display="inline">
		<path fill="#FFFFFF" d="M205,1c-7.956,0-15.587,3.161-21.213,8.787L141.61,51.964H81.963c-7.956,0-15.587,3.161-21.213,8.787
			s-8.787,13.257-8.787,21.213v59.647L9.787,183.787C4.161,189.413,1,197.044,1,205s3.161,15.587,8.787,21.213l36.624,36.624
			c-0.503,1.763-0.967,3.536-1.39,5.319c-2.2,9.277-3.316,18.849-3.316,28.447c0,2.355,0.067,4.708,0.201,7.055
			c-0.67,0.477-1.334,0.962-1.992,1.457c-7.477,5.622-14.04,12.318-19.508,19.904c-5.548,7.698-9.857,16.16-12.809,25.152
			C4.547,359.464,3,369.167,3,379.011c0,23.076,8.553,45.174,24.084,62.225c14.247,15.639,33.262,25.846,53.992,29.086
			c2.617,0.734,5.343,1.117,8.109,1.117h319.631c0.752,0,1.501-0.028,2.246-0.085c11.685-0.435,23.01-3.031,33.688-7.726
			c10.801-4.748,20.48-11.436,28.771-19.877c8.3-8.451,14.815-18.261,19.365-29.158c4.716-11.297,7.108-23.268,7.108-35.582
			c0-8.134-1.063-16.215-3.161-24.018c-2.037-7.581-5.045-14.886-8.941-21.715c-3.662-6.421-8.092-12.377-13.156-17.732
			c2.68-11.684,4.031-23.659,4.031-35.796c0-20.645-3.888-40.753-11.556-59.763c-3.688-9.148-8.263-18.006-13.592-26.33
			c-5.271-8.232-11.336-16.027-18.028-23.17c-6.68-7.13-14.052-13.682-21.912-19.475c-7.923-5.838-16.423-10.966-25.265-15.24
			c-9.786-4.73-19.939-8.419-30.379-11.045V81.964c0-7.956-3.161-15.587-8.787-21.213s-13.257-8.787-21.213-8.787H268.39
			L226.214,9.787C220.588,4.161,212.957,1,205,1L205,1z M81.963,81.964h72.073L205,31l50.962,50.964h72.075v68.259
			c67.459,4.68,120.731,60.879,120.731,129.527l0,0l0,0c0,16.248-2.992,31.794-8.441,46.129c17.8,10.993,29.669,30.67,29.669,53.132
			l0,0l0,0c0,34.058-27.28,61.729-61.18,62.396v0.031l0,0l0,0H89.185v-0.313C57.638,437.993,33,411.381,33,379.011l0,0l0,0
			c0-27.215,17.415-50.353,41.708-58.897c-1.957-7.51-3.003-15.388-3.003-23.51l0,0l0,0c0-14.818,3.472-28.825,9.637-41.262L31,205
			l0,0l0,0l50.963-50.963V81.964L81.963,81.964L81.963,81.964z M409.407,471.401c0.03-0.001,0.062-0.002,0.092-0.002
			C409.469,471.399,409.438,471.4,409.407,471.401L409.407,471.401z"/>
	</g>
	<g display="inline">
		<path fill="#FFFFFF" d="M318.919,119.899c-14.351,0-28.591,1.909-42.325,5.673c-13.327,3.652-26.149,9.042-38.11,16.019
			c-16.18,9.439-30.583,21.677-42.515,36.023c-0.66-0.174-1.321-0.341-1.984-0.504c-9.54-2.338-19.385-3.523-29.263-3.523
			c-16.594,0-32.707,3.257-47.893,9.68c-7.295,3.086-14.33,6.904-20.908,11.347c-6.507,4.396-12.626,9.445-18.185,15.004
			c-5.559,5.559-10.607,11.678-15.004,18.185c-4.443,6.578-8.261,13.613-11.347,20.908c-6.423,15.187-9.68,31.299-9.68,47.893
			c0,2.355,0.067,4.708,0.201,7.055c-0.67,0.477-1.334,0.962-1.992,1.457c-7.477,5.622-14.04,12.318-19.508,19.904
			c-5.548,7.698-9.857,16.16-12.809,25.152C4.547,359.464,3,369.167,3,379.011c0,23.076,8.553,45.174,24.084,62.225
			c14.247,15.639,33.262,25.846,53.992,29.086c2.617,0.734,5.343,1.117,8.109,1.117h319.631c0.752,0,1.501-0.028,2.246-0.085
			c11.685-0.435,23.01-3.031,33.688-7.726c10.801-4.748,20.48-11.436,28.771-19.877c8.3-8.451,14.815-18.261,19.365-29.158
			c4.716-11.297,7.108-23.268,7.108-35.582c0-8.134-1.063-16.215-3.161-24.018c-2.037-7.581-5.045-14.886-8.941-21.715
			c-3.662-6.421-8.092-12.377-13.156-17.732c2.68-11.684,4.031-23.659,4.031-35.796c0-10.826-1.092-21.654-3.246-32.184
			c-2.104-10.277-5.241-20.386-9.327-30.046c-4.01-9.478-8.971-18.618-14.744-27.165c-5.714-8.458-12.275-16.41-19.501-23.636
			c-7.227-7.226-15.178-13.788-23.636-19.502c-8.548-5.774-17.688-10.735-27.165-14.744c-9.66-4.086-19.77-7.224-30.047-9.327
			C340.573,120.992,329.745,119.899,318.919,119.899L318.919,119.899z M207.058,213.788c22.596-38.237,64.23-63.889,111.861-63.889
			c71.714,0,129.85,58.137,129.85,129.851l0,0l0,0c0,16.248-2.992,31.794-8.441,46.129c17.8,10.993,29.669,30.67,29.669,53.132l0,0
			l0,0c0,34.058-27.28,61.729-61.18,62.396v0.031l0,0l0,0H89.185v-0.313C57.638,437.993,33,411.381,33,379.011l0,0l0,0
			c0-27.215,17.415-50.353,41.708-58.897c-1.957-7.51-3.003-15.388-3.003-23.51l0,0l0,0c0-51.371,41.646-93.017,93.017-93.017
			C179.975,203.587,194.355,207.282,207.058,213.788L207.058,213.788z M409.407,471.401c0.03-0.001,0.062-0.002,0.092-0.002
			C409.469,471.399,409.438,471.4,409.407,471.401L409.407,471.401z"/>
	</g>
</g>
<g id="snow_icon">
	<g>
		<path fill="#FFFFFF" d="M116.253,269.5c-7.956,0-15.587,3.161-21.213,8.787s-8.787,13.257-8.787,21.213V370l30,15l0,0l-30-15v15
			c0,7.956,3.161,15.587,8.787,21.213S108.297,415,116.253,415v-30l0,0v30l0,0c7.956,0,15.587-3.161,21.213-8.787
			c2.302-2.302,4.191-4.938,5.62-7.797L116.253,385l0,0l26.833,13.416c2.064-4.127,3.167-8.715,3.167-13.416v-85.5
			c0-7.956-3.161-15.587-8.787-21.213S124.209,269.5,116.253,269.5L116.253,269.5z M116.253,385v-85.5V385L116.253,385L116.253,385z
			 M201.753,312.25c-4.615,0-9.211,1.064-13.417,3.167l-72.084,36.042V385l0,0v-33.541l-13.416,6.708
			c-5.84,2.92-10.531,7.645-13.417,13.417L116.253,385l0,0L89.42,371.584c-0.631,1.262-1.176,2.574-1.627,3.929
			c-2.517,7.548-1.931,15.787,1.627,22.903c3.558,7.117,9.798,12.528,17.346,15.044c3.087,1.029,6.292,1.54,9.486,1.54h0v-30l0,0v30
			c4.615,0,9.211-1.064,13.416-3.167l20.125-10.063L116.253,385l0,0l33.541,16.771l65.375-32.688
			c7.117-3.558,12.528-9.798,15.044-17.346c2.517-7.548,1.931-15.787-1.627-22.903c-3.558-7.117-9.798-12.528-17.346-15.044
			C208.152,312.761,204.948,312.25,201.753,312.25L201.753,312.25z M116.253,385l85.5-42.75L116.253,385L116.253,385z
			 M30.752,312.25c-3.195,0-6.398,0.51-9.486,1.54c-7.548,2.516-13.788,7.927-17.346,15.044c-3.558,7.116-4.144,15.355-1.627,22.903
			c2.516,7.548,7.927,13.788,15.044,17.346l85.5,42.75c4.205,2.103,8.801,3.167,13.416,3.167v-30l0,0v30h0
			c3.195,0,6.398-0.51,9.487-1.54c7.548-2.516,13.788-7.927,17.346-15.044L116.253,385l0,0l26.833,13.416l0,0
			c3.558-7.116,4.144-15.355,1.627-22.903c-2.516-7.548-7.927-13.788-15.044-17.346l-13.416-6.708V385l0,0v-33.541l-72.084-36.042
			C39.964,313.314,35.367,312.25,30.752,312.25L30.752,312.25z M116.253,385l-85.5-42.75L116.253,385L116.253,385L116.253,385z
			 M116.253,355L116.253,355l0,30l0,0l0,0l0,0l0,0l0,0l0,0l0,0l0,0l0,0l-85.5,42.75l85.5-42.75l-33.541-16.771l-65.375,32.688
			c-7.117,3.558-12.528,9.798-15.044,17.346c-2.517,7.548-1.931,15.787,1.627,22.903c3.558,7.117,9.798,12.528,17.346,15.044
			c3.087,1.029,6.292,1.54,9.486,1.54c4.615,0,9.211-1.064,13.417-3.167l72.084-36.042V385l0,0v33.541l13.416-6.708
			c5.84-2.92,10.531-7.645,13.417-13.417L116.253,385l0,0l26.833,13.416c0.631-1.262,1.176-2.574,1.627-3.929
			c2.517-7.548,1.931-15.787-1.627-22.903c-3.558-7.117-9.798-12.528-17.346-15.044C122.652,355.511,119.448,355,116.253,355
			L116.253,355z M116.253,355c-4.615,0-9.211,1.064-13.416,3.167l-20.125,10.063L116.253,385l0,0V355L116.253,355z M116.252,355
			c-3.195,0-6.398,0.51-9.486,1.54c-7.548,2.516-13.788,7.927-17.346,15.044L116.253,385l0,0L89.42,371.584c0,0,0,0,0,0
			c-3.558,7.116-4.144,15.355-1.627,22.903c2.516,7.548,7.927,13.788,15.044,17.346l13.416,6.708V385l0,0v33.541l72.084,36.042
			c4.205,2.103,8.802,3.167,13.417,3.167c3.195,0,6.398-0.51,9.487-1.54c7.548-2.516,13.788-7.927,17.346-15.044
			c3.558-7.116,4.144-15.355,1.627-22.903c-2.516-7.548-7.927-13.788-15.044-17.346l-85.5-42.75
			C125.464,356.064,120.868,355,116.252,355l0,30l0,0L116.252,355L116.252,355L116.252,355z M116.253,385l85.5,42.75L116.253,385
			L116.253,385z M116.253,355v30l0,0V355c-7.956,0-15.587,3.161-21.213,8.787c-2.302,2.302-4.191,4.938-5.62,7.797L116.253,385l0,0
			L89.42,371.584c-2.063,4.127-3.167,8.715-3.167,13.416v85.5c0,7.956,3.161,15.587,8.787,21.213s13.257,8.787,21.213,8.787
			s15.587-3.161,21.213-8.787s8.787-13.257,8.787-21.213V400l-30-15l0,0l30,15v-15c0-7.956-3.161-15.587-8.787-21.213
			S124.209,355,116.253,355L116.253,355z M116.253,385v85.5V385L116.253,385z"/>
	</g>
	<g>
		<path fill="#FFFFFF" d="M384.253,269c-7.956,0-15.587,3.161-21.213,8.787s-8.787,13.257-8.787,21.213v70.5l30,15l0,0l-30-15v15
			c0,7.956,3.161,15.587,8.787,21.213s13.257,8.787,21.213,8.787v-30l0,0v30l0,0c7.956,0,15.587-3.161,21.213-8.787
			c2.302-2.302,4.19-4.938,5.62-7.797L384.253,384.5l0,0l26.833,13.416c2.063-4.127,3.167-8.715,3.167-13.416V299
			c0-7.956-3.161-15.587-8.787-21.213S392.209,269,384.253,269L384.253,269z M384.253,384.5V299V384.5L384.253,384.5L384.253,384.5z
			 M469.754,311.75c-4.615,0-9.212,1.064-13.417,3.167l-72.084,36.042V384.5l0,0v-33.541l-13.416,6.708
			c-5.84,2.92-10.531,7.645-13.417,13.417l26.833,13.416l0,0l-26.833-13.416c-0.631,1.262-1.176,2.574-1.627,3.929
			c-2.517,7.548-1.931,15.787,1.627,22.903c3.558,7.117,9.798,12.528,17.346,15.044c3.088,1.029,6.292,1.54,9.487,1.54l0,0v-30l0,0
			v30c4.615,0,9.211-1.064,13.416-3.167l20.125-10.063L384.253,384.5l0,0l33.541,16.771l65.375-32.688
			c7.117-3.558,12.528-9.798,15.044-17.346c2.518-7.548,1.931-15.787-1.627-22.903c-3.558-7.117-9.798-12.528-17.346-15.044
			C476.152,312.261,472.948,311.75,469.754,311.75L469.754,311.75z M384.253,384.5l85.5-42.75L384.253,384.5L384.253,384.5z
			 M298.753,311.75c-3.195,0-6.398,0.51-9.487,1.54c-7.548,2.516-13.788,7.927-17.346,15.044
			c-3.558,7.116-4.144,15.355-1.627,22.903c2.516,7.548,7.927,13.788,15.044,17.346l85.5,42.75
			c4.205,2.103,8.802,3.167,13.416,3.167v-30l0,0v30l0,0c3.195,0,6.399-0.51,9.487-1.54c7.548-2.516,13.788-7.927,17.346-15.044
			L384.253,384.5l0,0l26.833,13.416l0,0c3.558-7.116,4.145-15.355,1.627-22.903c-2.516-7.548-7.927-13.788-15.044-17.346
			l-13.416-6.708V384.5l0,0v-33.541l-72.084-36.042C307.964,312.814,303.367,311.75,298.753,311.75L298.753,311.75z M384.253,384.5
			l-85.5-42.75L384.253,384.5L384.253,384.5L384.253,384.5z M384.254,354.5L384.254,354.5l-0.001,30l0,0l0,0l0,0l0,0l0,0l0,0l0,0
			l0,0l0,0l-85.5,42.75l85.5-42.75l-33.541-16.771l-65.375,32.688c-7.117,3.558-12.528,9.798-15.044,17.346
			c-2.517,7.548-1.931,15.787,1.627,22.903c3.558,7.117,9.798,12.528,17.346,15.044c3.088,1.029,6.292,1.54,9.487,1.54
			c4.615,0,9.211-1.064,13.416-3.167l72.084-36.042V384.5l0,0v33.541l13.416-6.708c5.84-2.92,10.531-7.645,13.417-13.417
			L384.253,384.5l0,0l26.833,13.416c0.631-1.262,1.176-2.574,1.627-3.929c2.518-7.548,1.931-15.787-1.627-22.903
			c-3.558-7.117-9.798-12.528-17.346-15.044C390.652,355.011,387.448,354.5,384.254,354.5L384.254,354.5z M384.253,354.5
			c-4.615,0-9.211,1.064-13.416,3.167l-20.125,10.063l33.541,16.771l0,0V354.5L384.253,354.5z M384.253,354.5
			c-3.195,0-6.398,0.51-9.487,1.54c-7.548,2.516-13.788,7.927-17.346,15.044l26.833,13.416l0,0l-26.833-13.416l0,0
			c-3.558,7.116-4.144,15.355-1.627,22.903c2.516,7.548,7.927,13.788,15.044,17.346l13.416,6.708V384.5l0,0v33.541l72.084,36.042
			c4.205,2.103,8.802,3.167,13.416,3.167c3.195,0,6.399-0.51,9.487-1.54c7.548-2.516,13.788-7.927,17.346-15.044
			c3.558-7.116,4.145-15.355,1.627-22.903c-2.516-7.548-7.927-13.788-15.044-17.346l-85.5-42.75
			C393.464,355.564,388.867,354.5,384.253,354.5v30l0,0V354.5L384.253,354.5L384.253,354.5z M384.253,384.5l85.5,42.75
			L384.253,384.5L384.253,384.5z M384.253,354.5v30l0,0V354.5c-7.956,0-15.587,3.161-21.213,8.787
			c-2.302,2.302-4.19,4.938-5.62,7.797l26.833,13.416l0,0l-26.833-13.416c-2.063,4.127-3.167,8.715-3.167,13.416V470
			c0,7.956,3.161,15.587,8.787,21.213S376.297,500,384.253,500s15.587-3.161,21.213-8.787s8.787-13.257,8.787-21.213v-70.5l-30-15
			l0,0l30,15v-15c0-7.956-3.161-15.587-8.787-21.213S392.209,354.5,384.253,354.5L384.253,354.5z M384.253,384.5V470V384.5
			L384.253,384.5z"/>
	</g>
	<g>
		<path fill="#FFFFFF" d="M250,1c-7.956,0-15.587,3.161-21.213,8.787S220,23.044,220,31v70.5l30,15l0,0l-30-15v15
			c0,7.956,3.161,15.587,8.787,21.213S242.044,146.5,250,146.5v-30l0,0v30l0,0c7.956,0,15.587-3.161,21.213-8.787
			c2.302-2.302,4.19-4.939,5.62-7.796L250,116.5l0,0l26.833,13.417c2.063-4.128,3.167-8.715,3.167-13.417V31
			c0-7.956-3.161-15.587-8.787-21.213S257.956,1,250,1L250,1z M250,116.5V31V116.5L250,116.5L250,116.5z M335.5,43.75
			c-4.614,0-9.211,1.064-13.416,3.167L250,82.959V116.5l0,0V82.959l-13.416,6.708c-5.84,2.919-10.531,7.645-13.417,13.417L250,116.5
			l0,0l-26.833-13.417c-0.631,1.262-1.176,2.575-1.627,3.93c-2.517,7.548-1.931,15.787,1.627,22.903
			c3.558,7.117,9.798,12.528,17.346,15.044c3.087,1.03,6.292,1.54,9.486,1.54h0v-30l0,0v30c4.615,0,9.211-1.064,13.416-3.167
			l20.125-10.063L250,116.5l0,0l33.541,16.771l65.375-32.688c7.117-3.558,12.528-9.798,15.044-17.346
			c2.517-7.548,1.931-15.787-1.627-22.903c-3.558-7.117-9.798-12.528-17.346-15.044C341.899,44.26,338.695,43.75,335.5,43.75
			L335.5,43.75z M250,116.5l85.5-42.75L250,116.5L250,116.5z M164.5,43.75c-3.195,0-6.398,0.51-9.486,1.54
			c-7.548,2.516-13.788,7.927-17.346,15.044c-3.558,7.116-4.144,15.355-1.627,22.903c2.516,7.548,7.927,13.788,15.044,17.346
			l85.5,42.75c4.205,2.103,8.801,3.167,13.416,3.167v-30l0,0v30h0c3.195,0,6.399-0.51,9.487-1.54
			c7.548-2.516,13.788-7.927,17.346-15.044L250,116.5l0,0l26.833,13.417c0,0,0,0,0,0c3.558-7.116,4.144-15.355,1.627-22.903
			c-2.516-7.548-7.927-13.788-15.044-17.346L250,82.959V116.5l0,0V82.959l-72.084-36.042C173.711,44.814,169.114,43.75,164.5,43.75
			L164.5,43.75z M250,116.5l-85.5-42.75L250,116.5L250,116.5L250,116.5z M250,86.5L250,86.5l0,30l0,0l0,0l0,0l0,0l0,0l0,0l0,0l0,0
			l0,0l-85.5,42.75L250,116.5l-33.541-16.771l-65.375,32.688c-7.117,3.558-12.528,9.798-15.044,17.346
			c-2.517,7.548-1.931,15.787,1.627,22.903c3.558,7.117,9.798,12.528,17.346,15.044c3.087,1.03,6.292,1.54,9.486,1.54
			c4.615,0,9.211-1.064,13.417-3.167L250,150.041V116.5l0,0v33.541l13.416-6.708c5.84-2.919,10.531-7.645,13.417-13.417L250,116.5
			l0,0l26.833,13.417c0.631-1.262,1.176-2.575,1.627-3.93c2.517-7.548,1.931-15.787-1.627-22.903
			c-3.558-7.117-9.798-12.528-17.346-15.044C256.399,87.01,253.195,86.5,250,86.5L250,86.5z M250,86.5
			c-4.615,0-9.211,1.064-13.416,3.167l-20.125,10.063L250,116.5l0,0V86.5L250,86.5z M250,86.5c-3.195,0-6.398,0.51-9.486,1.54
			c-7.548,2.516-13.788,7.927-17.346,15.044L250,116.5l0,0l-26.833-13.417c0,0,0,0,0,0c-3.558,7.116-4.144,15.355-1.627,22.903
			c2.516,7.548,7.927,13.788,15.044,17.346L250,150.041V116.5l0,0v33.541l72.084,36.042c4.205,2.103,8.802,3.167,13.416,3.167
			c3.195,0,6.399-0.51,9.487-1.54c7.548-2.516,13.788-7.927,17.346-15.044c3.558-7.116,4.144-15.355,1.627-22.903
			c-2.516-7.548-7.927-13.788-15.044-17.346l-85.5-42.75C259.211,87.564,254.614,86.5,250,86.5l0,30l0,0L250,86.5L250,86.5L250,86.5
			z M250,116.5l85.5,42.75L250,116.5L250,116.5z M250,86.5v30l0,0V86.5c-7.956,0-15.587,3.161-21.213,8.787
			c-2.302,2.302-4.191,4.939-5.62,7.796L250,116.5l0,0l-26.833-13.417c-2.064,4.128-3.167,8.715-3.167,13.417V202
			c0,7.956,3.161,15.587,8.787,21.213S242.044,232,250,232s15.587-3.161,21.213-8.787S280,209.956,280,202v-70.5l-30-15l0,0l30,15
			v-15c0-7.956-3.161-15.587-8.787-21.213S257.956,86.5,250,86.5L250,86.5z M250,116.5V202V116.5L250,116.5z"/>
	</g>
</g>
<g id="sun_icon" display="none">
	<g display="inline">
		<path fill="#FFFFFF" d="M250,2c-7.956,0-15.587,3.161-21.213,8.787l-55.065,55.065H95.85c-7.956,0-15.587,3.161-21.213,8.787
			S65.85,87.896,65.85,95.852v77.872l-55.063,55.063C5.161,234.413,2,242.043,2,250c0,7.956,3.161,15.587,8.787,21.213
			l55.063,55.064v77.873c0,7.956,3.161,15.587,8.787,21.213s13.257,8.787,21.213,8.787h77.871l55.066,55.063
			C234.413,494.839,242.044,498,250,498c7.957,0,15.587-3.161,21.213-8.787l55.063-55.063h77.873c7.956,0,15.587-3.161,21.213-8.787
			s8.787-13.257,8.787-21.213v-77.873l55.063-55.064C494.839,265.587,498,257.956,498,250c0-7.957-3.161-15.587-8.787-21.213
			l-55.063-55.063V95.852c0-7.956-3.161-15.587-8.787-21.213s-13.257-8.787-21.213-8.787h-77.872l-55.063-55.065
			C265.587,5.161,257.957,2,250,2L250,2z M95.85,95.852h90.298L250,32l63.85,63.852h90.3v90.298L468,250l0,0l0,0l-63.851,63.851
			v90.3l0,0l0,0h-90.3L250,468l-63.852-63.85H95.85v-90.3L32,250l0,0l0,0l63.85-63.85V95.852L95.85,95.852L95.85,95.852z"/>
	</g>
</g>
<g id="Cloud_Icon" display="none">
	<g display="inline">
		<path fill="#FFFFFF" d="M317.919,105.899c-14.351,0-28.591,1.909-42.325,5.673c-13.327,3.652-26.149,9.042-38.11,16.019
			c-16.18,9.439-30.583,21.677-42.515,36.023c-0.66-0.174-1.321-0.341-1.984-0.504c-9.54-2.338-19.385-3.523-29.263-3.523
			c-16.594,0-32.707,3.257-47.893,9.68c-7.295,3.086-14.33,6.904-20.908,11.347c-6.507,4.396-12.626,9.445-18.185,15.004
			c-5.559,5.559-10.607,11.678-15.004,18.185c-4.443,6.578-8.261,13.613-11.347,20.908c-6.423,15.186-9.68,31.299-9.68,47.893
			c0,2.355,0.067,4.708,0.201,7.055c-0.67,0.477-1.334,0.962-1.992,1.457c-7.477,5.622-14.04,12.318-19.508,19.904
			c-5.548,7.698-9.857,16.16-12.809,25.152C3.547,345.464,2,355.167,2,365.011c0,23.076,8.553,45.174,24.084,62.225
			c14.247,15.639,33.262,25.846,53.992,29.086c2.617,0.734,5.343,1.117,8.109,1.117h319.631c0.752,0,1.501-0.028,2.246-0.085
			c11.685-0.435,23.01-3.031,33.688-7.726c10.801-4.748,20.48-11.436,28.771-19.877c8.3-8.451,14.815-18.261,19.365-29.158
			c4.716-11.297,7.108-23.268,7.108-35.582c0-8.134-1.063-16.215-3.161-24.018c-2.037-7.581-5.045-14.886-8.941-21.715
			c-3.662-6.421-8.092-12.377-13.156-17.732c2.68-11.684,4.031-23.659,4.031-35.796c0-10.826-1.092-21.654-3.246-32.184
			c-2.104-10.277-5.241-20.386-9.327-30.046c-4.01-9.478-8.971-18.618-14.744-27.165c-5.714-8.458-12.275-16.41-19.501-23.636
			c-7.227-7.226-15.178-13.788-23.636-19.502c-8.548-5.774-17.688-10.735-27.165-14.744c-9.66-4.086-19.77-7.224-30.047-9.327
			C339.573,106.992,328.745,105.899,317.919,105.899L317.919,105.899z M206.058,199.788c22.596-38.237,64.23-63.889,111.861-63.889
			c71.714,0,129.85,58.137,129.85,129.851l0,0l0,0c0,16.248-2.992,31.794-8.441,46.129c17.8,10.993,29.669,30.67,29.669,53.132l0,0
			l0,0c0,34.058-27.28,61.729-61.18,62.396v0.031l0,0l0,0H88.185v-0.313C56.638,423.993,32,397.381,32,365.011l0,0l0,0
			c0-27.215,17.415-50.353,41.708-58.897c-1.957-7.51-3.003-15.388-3.003-23.51l0,0l0,0c0-51.371,41.646-93.017,93.017-93.017
			C178.975,189.587,193.355,193.282,206.058,199.788L206.058,199.788z M408.407,457.401c0.03-0.001,0.062-0.002,0.092-0.002
			C408.469,457.399,408.438,457.4,408.407,457.401L408.407,457.401z"/>
	</g>
</g>
</svg>
